<svg xmlns="http://www.w3.org/2000/svg" width="504" height="113"><defs><clipPath id="a"><path d="M0 0h504v113H0z"/></clipPath></defs><g data-name="アートボード – 1" clip-path="url(#a)"><path fill="#fff" d="M0 0h504v113H0z"/><text data-name="https://example.com:80/products/1?page=1&amp;items_per_page=10#list" transform="translate(9 54)" fill="#888" font-size="14" font-family="Meiryo"><tspan x="0" y="15">https://example.com:80/products/1?page=1&amp;items_per_page=10#list</tspan></text><text data-name="https://127.0.0.1:80/products/1?page=1&amp;items_per_page=10#list" transform="translate(9 35)" fill="#888" font-size="14" font-family="Meiryo"><tspan x="0" y="15">https://127.0.0.1:80/products/1?page=1&amp;items_per_page=10#list</tspan></text><text transform="translate(-1 77)" fill="#707070" font-size="12" font-family="Meiryo-Bold, Meiryo" font-weight="700"><tspan x="0" y="13">protocol</tspan></text><text transform="translate(81 77)" fill="#707070" font-size="12" font-family="Meiryo-Bold, Meiryo" font-weight="700"><tspan x="0" y="13">domain</tspan></text><text data-name="IP Address" transform="translate(61 17)" fill="#707070" font-size="12" font-family="Meiryo-Bold, Meiryo" font-weight="700"><tspan x="0" y="13">IP Address</tspan></text><text transform="translate(87 -3)" fill="#707070" font-size="12" font-family="Meiryo-Bold, Meiryo" font-weight="700"><tspan x="0" y="13">Socket</tspan></text><text transform="translate(154 77)" fill="#707070" font-size="12" font-family="Meiryo-Bold, Meiryo" font-weight="700"><tspan x="0" y="13">port</tspan></text><text transform="translate(202 77)" fill="#707070" font-size="12" font-family="Meiryo-Bold, Meiryo" font-weight="700"><tspan x="0" y="13">path</tspan></text><text transform="translate(78 97)" fill="#707070" font-size="12" font-family="Meiryo-Bold, Meiryo" font-weight="700"><tspan x="0" y="13">origin</tspan></text><text transform="translate(344 77)" fill="#707070" font-size="12" font-family="Meiryo-Bold, Meiryo" font-weight="700"><tspan x="0" y="13">query</tspan></text><text transform="translate(474 77)" fill="#707070" font-size="12" font-family="Meiryo-Bold, Meiryo" font-weight="700"><tspan x="0" y="13">hash</tspan></text><path data-name="パス 1" d="M9 72.5v5h35v-5" fill="none" stroke="#707070"/><path data-name="パス 7" d="M64 38v-4.191h65V38" fill="none" stroke="#707070"/><path data-name="パス 2" d="M59 72.25V77h95v-4.318" fill="none" stroke="#707070"/><path data-name="パス 3" d="M267.951 72.75V77h199.43v-4.25" fill="none" stroke="#707070"/><path data-name="パス 8" d="M9 93.875v3.191h166.241v-3.191" fill="none" stroke="#707070"/><path data-name="パス 4" d="M160 72.75V77h15.241v-3.864" fill="none" stroke="#707070"/><path data-name="パス 5" d="M184 72.75V77h73.329v-4.25" fill="none" stroke="#707070"/><path data-name="パス 6" d="M479.676 72.75V77H499v-4.25" fill="none" stroke="#707070"/><path data-name="パス 9" d="M63.917 20v-5H152v22.965" fill="none" stroke="#707070"/></g></svg>