<svg xmlns="http://www.w3.org/2000/svg" xmlns:xlink="http://www.w3.org/1999/xlink" viewBox="0 0 40 40"><defs><style>.cls-1{fill:url(#名称未設定グラデーション_28);}.cls-2{fill:#fff;}</style><linearGradient id="名称未設定グラデーション_28" x1="3.47" y1="36.53" x2="36.53" y2="3.47" gradientUnits="userSpaceOnUse"><stop offset="0.01" stop-color="#cc6acb"/><stop offset="1" stop-color="#8468f3"/></linearGradient></defs><g id="枠"><rect class="cls-1" x="2" y="2" width="36" height="36" rx="5"/></g><g id="文字"><path class="cls-2" d="M9.56,8.27a1,1,0,0,1-.24-.64,1,1,0,0,1,1-1,1,1,0,0,1,.82.45l3.28,4.75,3.29-4.75a1,1,0,0,1,.82-.45,1,1,0,0,1,1,1,1,1,0,0,1-.24.64l-3.93,5.25v4.91c0,.46-.4.79-1,.79a.86.86,0,0,1-1-.79V13.52Z"/><path class="cls-2" d="M25.5,6.86c4.07,0,6.51,2.28,6.51,6.06a5.73,5.73,0,0,1-2.61,5.15,7.55,7.55,0,0,1-4,.94h-2a1.76,1.76,0,0,1-2-2V8.86a1.76,1.76,0,0,1,2-2Zm-2.17,10a.42.42,0,0,0,.45.47h1.36c3.06,0,4.8-1.59,4.8-4.41s-1.66-4.43-4.72-4.43H23.78c-.3,0-.45.15-.45.47Z"/><path class="cls-2" d="M21.82,27.7C23.88,28,25,29,25,30.62,25,32.75,23.19,34,20.22,34h-3a1.45,1.45,0,0,1-1.63-1.65V23.51a1.45,1.45,0,0,1,1.63-1.65h2.55a8.43,8.43,0,0,1,2.6.36,2.86,2.86,0,0,1,2,2.67c0,1.5-.87,2.43-2.57,2.75Zm-2.25-.8c1.77,0,2.79-.64,2.79-1.77s-.94-1.81-2.71-1.81H17.73a.23.23,0,0,0-.26.25V26.9Zm-2.1,5.15c0,.24.12.36.38.36H20a4.26,4.26,0,0,0,1.78-.32,1.86,1.86,0,0,0,1-1.65,1.65,1.65,0,0,0-1.17-1.65,5.08,5.08,0,0,0-2-.37H17.47Z"/></g></svg>