<?xml version="1.0" encoding="UTF-8"?><svg xmlns="http://www.w3.org/2000/svg" xmlns:xlink="http://www.w3.org/1999/xlink" viewBox="0 0 500 500"><defs><style>.e{fill:#fff;}.f{fill:url(#b);}.g{fill:none;}.h{fill:#231815;}</style><linearGradient id="b" x1="0" y1="250" x2="500" y2="250" gradientTransform="matrix(1, 0, 0, 1, 0, 0)" gradientUnits="userSpaceOnUse"><stop offset="0" stop-color="#8d2ce2"/><stop offset="1" stop-color="#4b00e0"/></linearGradient></defs><g id="a"><rect class="f" width="500" height="500" rx="50" ry="50"/></g><g id="c"><g><path class="g" d="M412.98,164.83c2.5-.85,4.31-3.22,4.31-6.01s-1.8-5.16-4.31-6.01c.56,1.91,.87,3.92,.87,6.01s-.31,4.1-.87,6.01Z"/><path class="g" d="M417.04,217.71c0-2.79-1.8-5.16-4.31-6.01,.56,1.91,.87,3.92,.87,6.01s-.31,4.1-.87,6.01c2.5-.85,4.31-3.22,4.31-6.01Z"/><path class="g" d="M386.13,158.82c0,2.79,1.8,5.16,4.31,6.01-.56-1.91-.87-3.92-.87-6.01s.31-4.1,.87-6.01c-2.5,.85-4.31,3.22-4.31,6.01Z"/><path class="g" d="M390.2,211.7c-2.5,.85-4.31,3.22-4.31,6.01s1.8,5.16,4.31,6.01c-.56-1.91-.87-3.92-.87-6.01s.31-4.1,.87-6.01Z"/><path class="g" d="M392.59,272.14c-2.5,.85-4.31,3.22-4.31,6.01s1.8,5.16,4.31,6.01c-.56-1.91-.87-3.92-.87-6.01s.31-4.1,.87-6.01Z"/><path class="g" d="M419.43,278.16c0-2.79-1.8-5.16-4.31-6.01,.56,1.91,.87,3.93,.87,6.01s-.31,4.1-.87,6.01c2.5-.85,4.31-3.22,4.31-6.01Z"/><path class="e" d="M239.07,196.64c0-3.1,.74-6.02,2.03-8.63-1.14-2.48-1.79-5.22-1.79-8.12v-42.14c0-10.8,8.79-19.58,19.58-19.58h33.2c-6.18-11.89-18.56-19.83-32.71-19.83-1.29,0-2.61,.07-3.9,.2-4.07,.43-8.08,1.56-11.91,3.37l-7.73,3.65-3.31-7.89c-9.61-22.88-31.83-37.67-56.6-37.67-2.15,0-4.33,.11-6.49,.34-31.71,3.32-55.87,30.9-55,62.77l.18,6.67-6.49,1.53c-28.64,6.73-47.93,33.89-44.89,63.17,1.13,10.51,5.05,20.51,11.32,28.9,11.04,14.8,28.6,23.63,46.99,23.63h119.35c-1.16-2.5-1.83-5.28-1.83-8.22v-42.14Z"/><path class="h" d="M240.9,247c.13,.29,.27,.58,.41,.86,.16-.29,.34-.57,.51-.86h-.92Z"/><polygon class="e" points="342.91 208.08 342.61 209.07 342.61 209.07 342.91 208.08"/><path class="e" d="M430.41,133.16h-171.51c-2.52,0-4.58,2.06-4.58,4.58v42.14c0,2.52,2.06,4.58,4.58,4.58h77.46v7.58h-77.7c-2.52,0-4.58,2.06-4.58,4.58v42.14c0,2.52,2.06,4.58,4.58,4.58h77.46v9.14h-77.53c-2.52,0-4.59,2.06-4.59,4.59v42.14c0,2.52,2.06,4.59,4.59,4.59h79.92v7.49c-1.4,.93-2.61,2.14-3.55,3.54h-52.59v14.13h52.59c2.29,3.43,6.19,5.69,10.61,5.69s8.33-2.26,10.61-5.69h52.59v-14.13h-52.59c-.94-1.4-2.14-2.61-3.54-3.54v-7.49h77.46c2.52,0,4.59-2.06,4.59-4.59v-42.14c0-2.52-2.06-4.59-4.59-4.59h-77.46v-.14h-2.39v-9h79.92c2.52,0,4.59-2.06,4.59-4.58v-42.14c0-2.52-2.06-4.58-4.59-4.58h-79.67v-7.58h79.92c2.52,0,4.59-2.06,4.59-4.58v-42.14c0-2.52-2.06-4.58-4.59-4.58Zm-150.92,39.59h-9.51l-2.67-.02,8.3-27.85h9.53l2.65,.02-8.3,27.85Zm23.8-11.1l-3.31,11.1h-9.51l-2.67-.02,4.49-15.06,3.81-12.79h9.53l2.65,.02-4.99,16.75Zm17.18,11.1h-9.51l-2.67-.02,2.08-6.96,6.23-20.88h9.53l2.65,.02-8.3,27.85Zm-41.22,58.89h-9.51l-2.67-.02,8.3-27.85h9.53l2.65,.02-8.3,27.85Zm20.49,0h-9.51l-2.67-.02,8.3-27.85h9.53l2.65,.02-8.3,27.85Zm28.03-25.29l-6.26,21-1.28,4.28h-9.51l-2.67-.02,8.3-27.85h9.53l2.65,.02-.76,2.56Zm-46.13,85.73h-9.48l-2.7-.02,8.3-27.85h9.5l2.68,.02-8.3,27.85Zm20.49,0h-9.48l-2.69-.02,8.3-27.85h9.5l2.68,.02-8.3,27.85Zm28.05-25.36l-7.56,25.36h-9.48l-2.7-.02,8.3-27.85h9.5l2.68,.02-.74,2.49Zm82.9,5.07c.72,0,1.41,.12,2.05,.34,2.5,.85,4.31,3.22,4.31,6.01s-1.8,5.16-4.31,6.01c-.64,.22-1.33,.34-2.05,.34-3.51,0-6.36-2.85-6.36-6.35s2.84-6.36,6.36-6.36Zm-20.49,.34c.64-.22,1.33-.34,2.05-.34,3.51,0,6.36,2.85,6.36,6.36s-2.84,6.35-6.36,6.35c-.72,0-1.41-.12-2.05-.34-2.5-.85-4.31-3.22-4.31-6.01s1.8-5.16,4.31-6.01Zm18.1-60.79c.72,0,1.41,.12,2.05,.34,2.5,.85,4.31,3.22,4.31,6.01s-1.8,5.16-4.31,6.01c-.64,.22-1.33,.34-2.05,.34-3.51,0-6.36-2.84-6.36-6.36s2.84-6.36,6.36-6.36Zm-20.49,.34c.64-.22,1.33-.34,2.05-.34,3.51,0,6.36,2.85,6.36,6.36s-2.84,6.36-6.36,6.36c-.72,0-1.41-.12-2.05-.34-2.5-.85-4.31-3.22-4.31-6.01s1.8-5.16,4.31-6.01Zm2.29-46.52c-.72,0-1.41-.12-2.05-.34-2.5-.85-4.31-3.22-4.31-6.01s1.8-5.16,4.31-6.01c.64-.22,1.33-.34,2.05-.34,3.51,0,6.36,2.85,6.36,6.36s-2.84,6.36-6.36,6.36Zm20.49-.34c-.64,.22-1.33,.34-2.05,.34-3.51,0-6.36-2.84-6.36-6.36s2.84-6.36,6.36-6.36c.72,0,1.41,.12,2.05,.34,2.5,.85,4.31,3.22,4.31,6.01s-1.8,5.16-4.31,6.01Z"/></g></g><g id="d"><g><path class="e" d="M146.82,366.06c-.74-1.01-1.1-1.93-1.1-2.94,0-2.12,2.21-4.14,4.51-4.14,1.29,0,2.67,.83,3.59,2.12l21.99,32.01,21.99-32.01c.92-1.29,2.3-2.12,3.59-2.12,2.39,0,4.51,2.02,4.51,4.14,0,1.01-.37,1.93-1.1,2.94l-24.84,34.13v32.01c0,2.02-1.75,3.5-4.14,3.5s-4.14-1.47-4.14-3.5v-32.01l-24.84-34.13Z"/><path class="e" d="M239.56,360.08c10.49,0,18.77,2.12,25.39,6.53,9.75,6.44,15,17.2,15,30.63,0,23.74-15,37.35-41.03,37.35h-12.24c-6.44,0-9.75-3.31-9.75-9.94v-54.65c0-6.62,3.31-9.94,9.75-9.94h12.88Zm-14.26,64.49c0,1.66,.92,2.58,2.58,2.58h10.49c20.42,0,32.47-11.04,32.47-29.81s-11.32-29.81-31.92-29.81h-11.04c-1.75,0-2.58,.83-2.58,2.58v54.46Z"/><path class="e" d="M331.56,395.87c12.14,2.02,19.04,8.56,19.04,18.03,0,13.06-10.49,20.7-28.61,20.7h-18.12c-5.61,0-8.46-2.85-8.46-8.46v-57.59c0-5.61,2.85-8.46,8.46-8.46h15.36c6.07,0,11.96,.83,15.55,2.21,7.64,2.94,12.14,9.02,12.14,16.47,0,9.01-4.97,14.54-15.36,16.74v.37Zm-13.16-3.68c12.42,0,19.5-4.51,19.5-12.42,0-5.24-2.3-8.83-7.08-10.86-3.22-1.38-7.45-2.12-11.87-2.12h-13.52c-1.1,0-1.66,.55-1.66,1.66v23.73h14.63Zm-14.63,33.21c0,1.38,.64,2.02,2.02,2.02h15.55c4.32,0,8.56-.64,11.5-1.84,5.24-2.02,8.37-6.62,8.37-12.24s-2.3-8.56-8.46-11.5c-3.5-1.75-8.92-2.85-13.8-2.85h-15.18v26.4Z"/></g></g></svg>